<svg width="150" height="150" xmlns="http://www.w3.org/2000/svg">
  <defs>
    <pattern id="islamic-pattern" x="0" y="0" width="150" height="150" patternUnits="userSpaceOnUse">
      <g fill="none" stroke="white" stroke-width="1" opacity="0.3">
        <!-- Star Pattern -->
        <path d="M75,25 L85,55 L115,55 L92,72 L102,102 L75,85 L48,102 L58,72 L35,55 L65,55 Z"/>
        
        <!-- Geometric Lines -->
        <circle cx="75" cy="75" r="40"/>
        <circle cx="75" cy="75" r="30"/>
        <circle cx="75" cy="75" r="20"/>
        
        <!-- Corner Decorations -->
        <path d="M0,0 L30,0 L0,30 Z"/>
        <path d="M150,0 L120,0 L150,30 Z"/>
        <path d="M0,150 L0,120 L30,150 Z"/>
        <path d="M150,150 L150,120 L120,150 Z"/>
      </g>
    </pattern>
  </defs>
  <rect width="150" height="150" fill="url(#islamic-pattern)"/>
</svg>